# xmcd CD database file
#
# Track frame offsets:
#	187
#	13417
#	29517
#	48110
#	65310
#	90840
#	103555
#	111615
#	128232
#
# Disc length: 2400 seconds
#
# Revision: 1
# Processed by: cddbd v1.5.2PL0 Copyright (c) Steve Scherf et al.
# Submitted via: CDex 1.70beta2
#
DISCID=72095e09
DTITLE=10cc - Deceptive Bends
DYEAR=1977
DGENRE=Rock
TTITLE0=Good Morning Judge
TTITLE1=The Things We Do For Love
TTITLE2=Marriage Bureau Rendezvous
TTITLE3=People In Love
TTITLE4=Modern Man Blues
TTITLE5=Honeymoon With B Troop
TTITLE6=I Bought A Flat Guitar Tuitor
TTITLE7=You've Got A Cold
TTITLE8=Feel The Benefit (Parts 1, 2 And 3)
EXTD=YEAR: 1977
EXTT0=
EXTT1=
EXTT2=
EXTT3=
EXTT4=
EXTT5=
EXTT6=
EXTT7=
EXTT8=
PLAYORDER=
